<?xml version="1.0" encoding="iso-8859-1"?>
<!-- Generator: Adobe Illustrator 23.0.3, SVG Export Plug-In . SVG Version: 6.00 Build 0)  -->
<svg version="1.1" xmlns="http://www.w3.org/2000/svg" xmlns:xlink="http://www.w3.org/1999/xlink" x="0px" y="0px"
	 viewBox="0 0 589.394 98.485" style="enable-background:new 0 0 589.394 98.485;" xml:space="preserve">
<g id="Layer_1">
	<g>
		<path style="fill:#FFFFFF;" d="M44.573,89.639c-22.056,0-40-17.944-40-40c0-22.056,17.944-40,40-40H296.02
			c22.056,0,40,17.944,40,40c0,22.056-17.944,40-40,40H44.573z"/>
		<path d="M296.02,11.639c20.953,0,38,17.047,38,38s-17.047,38-38,38H44.573c-20.953,0-38-17.047-38-38s17.047-38,38-38H296.02
			 M296.02,7.639H44.573c-23.196,0-42,18.805-42,42c0,23.196,18.804,42,42,42H296.02c23.195,0,42-18.804,42-42
			C338.02,26.444,319.215,7.639,296.02,7.639L296.02,7.639z"/>
	</g>
	<g>
		<path style="fill:#FFFFFF;" d="M296.02,89.639c-22.056,0-40-17.944-40-40c0-22.056,17.944-40,40-40h249c22.056,0,40,17.944,40,40
			c0,22.056-17.944,40-40,40H296.02z"/>
		<path d="M545.02,11.639c20.953,0,38,17.047,38,38s-17.047,38-38,38h-249c-20.953,0-38-17.047-38-38s17.047-38,38-38H545.02
			 M545.02,7.639h-249c-23.196,0-42,18.805-42,42c0,23.196,18.804,42,42,42h249c23.196,0,42-18.804,42-42
			C587.02,26.444,568.216,7.639,545.02,7.639L545.02,7.639z"/>
	</g>
	<g>
		<circle cx="296.02" cy="49.639" r="44.5"/>
		<path style="fill:#FFFFFF;" d="M296.02,7.639c23.196,0,42,18.805,42,42s-18.804,42-42,42c-23.196,0-42-18.805-42-42
			S272.824,7.639,296.02,7.639 M296.02,2.639c-25.916,0-47,21.084-47,47s21.084,47,47,47c25.916,0,47-21.084,47-47
			S321.936,2.639,296.02,2.639L296.02,2.639z"/>
	</g>
	<g>
		<path d="M40.259,30.641H27.96v-4.44h29.939v4.44H45.539v35.998h-5.28V30.641z"/>
		<path d="M59.52,46.661c0-3.42-0.06-6.36-0.24-9.061h4.62l0.24,5.7h0.18c1.32-3.899,4.56-6.36,8.1-6.36
			c0.54,0,0.96,0.061,1.44,0.121v4.979c-0.54-0.06-1.08-0.119-1.8-0.119c-3.72,0-6.36,2.82-7.08,6.72
			c-0.12,0.78-0.18,1.62-0.18,2.46v15.539h-5.28V46.661z"/>
		<path d="M99.299,59.679c0,2.521,0.12,4.979,0.42,6.96h-4.74l-0.48-3.66h-0.18c-1.56,2.28-4.74,4.32-8.88,4.32
			c-5.88,0-8.879-4.141-8.879-8.34c0-7.02,6.24-10.859,17.459-10.8v-0.6c0-2.399-0.66-6.78-6.6-6.72c-2.76,0-5.58,0.779-7.62,2.16
			l-1.2-3.54c2.4-1.5,5.94-2.521,9.6-2.521c8.94,0,11.1,6.061,11.1,11.88V59.679z M94.14,51.82c-5.76-0.12-12.299,0.899-12.299,6.54
			c0,3.479,2.28,5.039,4.919,5.039c3.84,0,6.3-2.399,7.14-4.859c0.18-0.54,0.24-1.141,0.24-1.68V51.82z"/>
		<path d="M128.459,65.559c-1.38,0.66-4.44,1.68-8.34,1.68c-8.76,0-14.459-5.939-14.459-14.818c0-8.941,6.12-15.481,15.6-15.481
			c3.12,0,5.879,0.78,7.32,1.561l-1.2,4.02c-1.26-0.66-3.24-1.38-6.12-1.38C114.6,41.14,111,46.12,111,52.12
			c0,6.72,4.32,10.859,10.08,10.859c3,0,4.98-0.72,6.48-1.38L128.459,65.559z"/>
		<path d="M137.639,37.6l6.3,17.16c0.72,1.92,1.44,4.199,1.92,5.939h0.12c0.539-1.74,1.14-3.96,1.86-6.061l5.76-17.039h5.58
			l-7.92,20.699c-3.78,9.96-6.359,15-9.96,18.18c-2.64,2.22-5.16,3.119-6.48,3.359l-1.32-4.379c1.32-0.421,3.06-1.261,4.62-2.58
			c1.44-1.141,3.18-3.18,4.44-5.881c0.24-0.539,0.42-0.959,0.42-1.26c0-0.3-0.12-0.72-0.42-1.379l-10.68-26.76H137.639z"/>
		<path d="M176.218,60.28c2.34,1.439,5.7,2.58,9.3,2.58c5.339,0,8.459-2.76,8.459-6.84c0-3.78-2.16-6-7.62-8.04
			c-6.6-2.28-10.68-5.76-10.68-11.399c0-6.3,5.22-10.979,13.08-10.979c4.08,0,7.14,0.96,8.879,1.92l-1.44,4.319
			c-1.26-0.779-3.959-1.92-7.62-1.92c-5.52,0-7.62,3.301-7.62,6.06c0,3.719,2.46,5.579,8.04,7.739c6.84,2.7,10.26,5.939,10.26,11.88
			c0,6.18-4.56,11.639-14.1,11.639c-3.9,0-8.16-1.199-10.319-2.64L176.218,60.28z"/>
		<path d="M205.078,45.459c0-3.06-0.12-5.459-0.24-7.859h4.62l0.24,4.68h0.18c1.62-2.76,4.32-5.34,9.18-5.34
			c3.9,0,6.899,2.4,8.16,5.82h0.12c0.9-1.68,2.1-2.88,3.3-3.779c1.74-1.32,3.6-2.041,6.359-2.041c3.9,0,9.6,2.521,9.6,12.6v17.1
			h-5.16V50.2c0-5.64-2.1-8.939-6.3-8.939c-3.06,0-5.34,2.22-6.3,4.74c-0.24,0.779-0.42,1.739-0.42,2.64v17.999h-5.16V49.18
			c0-4.62-2.04-7.92-6.06-7.92c-3.24,0-5.7,2.64-6.54,5.279c-0.3,0.78-0.42,1.68-0.42,2.58v17.519h-5.16V45.459z"/>
	</g>
	<g>
		<path style="fill:#FFFFFF;" d="M284.859,59.679c0,2.521,0.12,4.979,0.42,6.96h-4.74l-0.48-3.66h-0.18
			c-1.56,2.28-4.74,4.32-8.88,4.32c-5.88,0-8.879-4.141-8.879-8.34c0-7.02,6.24-10.859,17.459-10.8v-0.6c0-2.399-0.66-6.78-6.6-6.72
			c-2.76,0-5.58,0.779-7.62,2.16l-1.2-3.54c2.4-1.5,5.94-2.521,9.6-2.521c8.94,0,11.1,6.061,11.1,11.88V59.679z M279.699,51.82
			c-5.76-0.12-12.299,0.899-12.299,6.54c0,3.479,2.28,5.039,4.919,5.039c3.84,0,6.3-2.399,7.14-4.859
			c0.18-0.54,0.24-1.141,0.24-1.68V51.82z"/>
		<path style="fill:#FFFFFF;" d="M291.52,46.661c0-3.42-0.06-6.36-0.24-9.061h4.62l0.239,5.7h0.181c1.319-3.899,4.56-6.36,8.1-6.36
			c0.54,0,0.96,0.061,1.44,0.121v4.979c-0.541-0.06-1.08-0.119-1.801-0.119c-3.72,0-6.359,2.82-7.079,6.72
			c-0.12,0.78-0.181,1.62-0.181,2.46v15.539h-5.279V46.661z"/>
		<path style="fill:#FFFFFF;" d="M319.538,30.641V37.6h7.56v4.02h-7.56v15.6c0,3.6,1.02,5.641,3.96,5.641
			c1.44,0,2.28-0.121,3.06-0.36l0.24,4.019c-1.02,0.36-2.64,0.72-4.68,0.72c-2.46,0-4.439-0.84-5.699-2.22
			c-1.44-1.62-2.041-4.2-2.041-7.62V41.62h-4.499V37.6h4.499v-5.34L319.538,30.641z"/>
	</g>
	<g>
		<path d="M379.037,24.042v35.098c0,2.58,0.06,5.52,0.239,7.5h-4.739l-0.24-5.04h-0.12c-1.619,3.24-5.1,5.7-9.84,5.7
			c-7.02,0-12.479-5.939-12.479-14.76c-0.061-9.719,6-15.6,13.02-15.6c4.5,0,7.499,2.101,8.76,4.381h0.119V24.042H379.037z
			 M373.756,49.421c0-0.721-0.06-1.561-0.24-2.28c-0.779-3.3-3.659-6.06-7.619-6.06c-5.46,0-8.699,4.799-8.699,11.159
			c0,5.94,2.939,10.8,8.579,10.8c3.54,0,6.78-2.4,7.739-6.359c0.181-0.66,0.24-1.381,0.24-2.221V49.421z"/>
		<path d="M390.917,32.68c-1.92,0-3.181-1.5-3.181-3.239c0-1.86,1.32-3.3,3.301-3.3c1.92,0,3.24,1.439,3.24,3.3
			c0,1.739-1.261,3.239-3.301,3.239H390.917z M388.397,66.639V37.6h5.28v29.039H388.397z"/>
		<path d="M403.038,46.661c0-3.42-0.061-6.36-0.24-9.061h4.62l0.239,5.7h0.181c1.319-3.899,4.56-6.36,8.1-6.36
			c0.54,0,0.96,0.061,1.44,0.121v4.979c-0.541-0.06-1.08-0.119-1.801-0.119c-3.72,0-6.359,2.82-7.079,6.72
			c-0.12,0.78-0.181,1.62-0.181,2.46v15.539h-5.279V46.661z"/>
		<path d="M425.657,53.08c0.119,7.08,4.619,10.02,9.899,10.02c3.78,0,6.12-0.659,8.04-1.5l0.959,3.78
			c-1.859,0.84-5.1,1.859-9.719,1.859c-8.88,0-14.279-5.939-14.279-14.639c0-8.76,5.219-15.66,13.68-15.66
			c9.478,0,11.94,8.34,11.94,13.68c0,1.08-0.061,1.86-0.181,2.46H425.657z M441.076,49.299c0.06-3.359-1.38-8.579-7.259-8.579
			c-5.4,0-7.68,4.92-8.101,8.579H441.076z"/>
		<path d="M474.016,65.559c-1.381,0.66-4.44,1.68-8.34,1.68c-8.76,0-14.46-5.939-14.46-14.818c0-8.941,6.12-15.481,15.6-15.481
			c3.12,0,5.88,0.78,7.319,1.561l-1.199,4.02c-1.26-0.66-3.24-1.38-6.12-1.38c-6.659,0-10.26,4.979-10.26,10.979
			c0,6.72,4.319,10.859,10.079,10.859c3,0,4.98-0.72,6.48-1.38L474.016,65.559z"/>
		<path d="M487.936,30.641V37.6h7.559v4.02h-7.559v15.6c0,3.6,1.019,5.641,3.959,5.641c1.439,0,2.28-0.121,3.06-0.36l0.239,4.019
			c-1.02,0.36-2.64,0.72-4.68,0.72c-2.46,0-4.439-0.84-5.7-2.22c-1.439-1.62-2.039-4.2-2.039-7.62V41.62h-4.5V37.6h4.5v-5.34
			L487.936,30.641z"/>
		<path d="M513.495,67.299c-7.799,0-13.919-5.76-13.919-14.939c0-9.72,6.42-15.42,14.399-15.42c8.34,0,13.979,6.061,13.979,14.88
			c0,10.8-7.5,15.479-14.399,15.479H513.495z M513.735,63.339c5.04,0,8.82-4.739,8.82-11.34c0-4.919-2.46-11.099-8.7-11.099
			c-6.18,0-8.88,5.76-8.88,11.279c0,6.359,3.601,11.159,8.7,11.159H513.735z"/>
		<path d="M535.215,46.661c0-3.42-0.06-6.36-0.24-9.061h4.62l0.24,5.7h0.18c1.32-3.899,4.56-6.36,8.1-6.36
			c0.54,0,0.96,0.061,1.44,0.121v4.979c-0.54-0.06-1.08-0.119-1.801-0.119c-3.72,0-6.359,2.82-7.079,6.72
			c-0.12,0.78-0.181,1.62-0.181,2.46v15.539h-5.279V46.661z"/>
	</g>
</g>
<g id="Layer_2" style="display:none;">
	<g style="display:inline;">
		<path d="M40.259,30.641H27.96v-4.44h29.939v4.44H45.539v35.998h-5.28V30.641z"/>
		<path d="M59.52,46.661c0-3.42-0.06-6.36-0.24-9.061h4.62l0.24,5.7h0.18c1.32-3.899,4.56-6.36,8.1-6.36
			c0.54,0,0.96,0.061,1.44,0.121v4.979c-0.54-0.06-1.08-0.119-1.8-0.119c-3.72,0-6.36,2.82-7.08,6.72
			c-0.12,0.78-0.18,1.62-0.18,2.46v15.539h-5.28V46.661z"/>
		<path d="M99.299,59.679c0,2.521,0.12,4.979,0.42,6.96h-4.74l-0.48-3.66h-0.18c-1.56,2.28-4.74,4.32-8.88,4.32
			c-5.88,0-8.879-4.141-8.879-8.34c0-7.02,6.24-10.859,17.459-10.8v-0.6c0-2.399-0.66-6.78-6.6-6.72c-2.76,0-5.58,0.779-7.62,2.16
			l-1.2-3.54c2.4-1.5,5.94-2.521,9.6-2.521c8.94,0,11.1,6.061,11.1,11.88V59.679z M94.14,51.82c-5.76-0.12-12.299,0.899-12.299,6.54
			c0,3.479,2.28,5.039,4.919,5.039c3.84,0,6.3-2.399,7.14-4.859c0.18-0.54,0.24-1.141,0.24-1.68V51.82z"/>
		<path d="M128.459,65.559c-1.38,0.66-4.44,1.68-8.34,1.68c-8.76,0-14.459-5.939-14.459-14.818c0-8.941,6.12-15.481,15.6-15.481
			c3.12,0,5.879,0.78,7.32,1.561l-1.2,4.02c-1.26-0.66-3.24-1.38-6.12-1.38C114.6,41.14,111,46.12,111,52.12
			c0,6.72,4.32,10.859,10.08,10.859c3,0,4.98-0.72,6.48-1.38L128.459,65.559z"/>
		<path d="M137.639,37.6l6.3,17.16c0.72,1.92,1.44,4.199,1.92,5.939h0.12c0.539-1.74,1.14-3.96,1.86-6.061l5.76-17.039h5.58
			l-7.92,20.699c-3.78,9.96-6.359,15-9.96,18.18c-2.64,2.22-5.16,3.119-6.48,3.359l-1.32-4.379c1.32-0.421,3.06-1.261,4.62-2.58
			c1.44-1.141,3.18-3.18,4.44-5.881c0.24-0.539,0.42-0.959,0.42-1.26c0-0.3-0.12-0.72-0.42-1.379l-10.68-26.76H137.639z"/>
		<path d="M176.218,60.28c2.34,1.439,5.7,2.58,9.3,2.58c5.339,0,8.459-2.76,8.459-6.84c0-3.78-2.16-6-7.62-8.04
			c-6.6-2.28-10.68-5.76-10.68-11.399c0-6.3,5.22-10.979,13.08-10.979c4.08,0,7.14,0.96,8.879,1.92l-1.44,4.319
			c-1.26-0.779-3.959-1.92-7.62-1.92c-5.52,0-7.62,3.301-7.62,6.06c0,3.719,2.46,5.579,8.04,7.739c6.84,2.7,10.26,5.939,10.26,11.88
			c0,6.18-4.56,11.639-14.1,11.639c-3.9,0-8.16-1.199-10.319-2.64L176.218,60.28z"/>
		<path d="M205.078,45.459c0-3.06-0.12-5.459-0.24-7.859h4.62l0.24,4.68h0.18c1.62-2.76,4.32-5.34,9.18-5.34
			c3.9,0,6.899,2.4,8.16,5.82h0.12c0.9-1.68,2.1-2.88,3.3-3.779c1.74-1.32,3.6-2.041,6.359-2.041c3.9,0,9.6,2.521,9.6,12.6v17.1
			h-5.16V50.2c0-5.64-2.1-8.939-6.3-8.939c-3.06,0-5.34,2.22-6.3,4.74c-0.24,0.779-0.42,1.739-0.42,2.64v17.999h-5.16V49.18
			c0-4.62-2.04-7.92-6.06-7.92c-3.24,0-5.7,2.64-6.54,5.279c-0.3,0.78-0.42,1.68-0.42,2.58v17.519h-5.16V45.459z"/>
	</g>
	<g style="display:inline;">
		<path d="M275.526,59.679c0,2.521,0.12,4.979,0.42,6.96h-4.74l-0.48-3.66h-0.18c-1.56,2.28-4.74,4.32-8.88,4.32
			c-5.88,0-8.879-4.141-8.879-8.34c0-7.02,6.24-10.859,17.459-10.8v-0.6c0-2.399-0.66-6.78-6.6-6.72c-2.76,0-5.58,0.779-7.62,2.16
			l-1.2-3.54c2.4-1.5,5.94-2.521,9.6-2.521c8.94,0,11.1,6.061,11.1,11.88V59.679z M270.366,51.82
			c-5.76-0.12-12.299,0.899-12.299,6.54c0,3.479,2.28,5.039,4.919,5.039c3.84,0,6.3-2.399,7.14-4.859
			c0.18-0.54,0.24-1.141,0.24-1.68V51.82z"/>
		<path d="M282.187,46.661c0-3.42-0.06-6.36-0.24-9.061h4.62l0.239,5.7h0.181c1.319-3.899,4.56-6.36,8.1-6.36
			c0.54,0,0.96,0.061,1.44,0.121v4.979c-0.541-0.06-1.08-0.119-1.801-0.119c-3.72,0-6.359,2.82-7.079,6.72
			c-0.12,0.78-0.181,1.62-0.181,2.46v15.539h-5.279V46.661z"/>
		<path d="M310.204,30.641V37.6h7.561v4.02h-7.561v15.6c0,3.6,1.021,5.641,3.96,5.641c1.441,0,2.28-0.121,3.06-0.36l0.24,4.019
			c-1.02,0.36-2.64,0.72-4.68,0.72c-2.46,0-4.44-0.84-5.699-2.22c-1.44-1.62-2.041-4.2-2.041-7.62V41.62h-4.499V37.6h4.499v-5.34
			L310.204,30.641z"/>
	</g>
</g>
<g id="Layer_3" style="display:none;">
	<g style="display:inline;">
		<g>
			<path d="M275.546,59.679c0,2.521,0.12,4.979,0.42,6.96h-4.74l-0.48-3.66h-0.18c-1.56,2.28-4.74,4.32-8.88,4.32
				c-5.88,0-8.879-4.141-8.879-8.34c0-7.02,6.24-10.859,17.459-10.8v-0.6c0-2.399-0.66-6.78-6.6-6.72c-2.76,0-5.58,0.779-7.62,2.16
				l-1.2-3.54c2.4-1.5,5.94-2.521,9.6-2.521c8.94,0,11.1,6.061,11.1,11.88V59.679z M270.387,51.82
				c-5.76-0.12-12.299,0.899-12.299,6.54c0,3.479,2.28,5.039,4.919,5.039c3.84,0,6.3-2.399,7.14-4.859
				c0.18-0.54,0.24-1.141,0.24-1.68V51.82z"/>
			<path d="M282.208,46.661c0-3.42-0.06-6.36-0.24-9.061h4.62l0.239,5.7h0.181c1.319-3.899,4.56-6.36,8.1-6.36
				c0.54,0,0.96,0.061,1.44,0.121v4.979c-0.541-0.06-1.08-0.119-1.801-0.119c-3.72,0-6.359,2.82-7.079,6.72
				c-0.12,0.78-0.181,1.62-0.181,2.46v15.539h-5.279V46.661z"/>
			<path d="M310.225,30.641V37.6h7.56v4.02h-7.56v15.6c0,3.6,1.02,5.641,3.96,5.641c1.44,0,2.28-0.121,3.06-0.36l0.24,4.019
				c-1.02,0.36-2.64,0.72-4.68,0.72c-2.46,0-4.439-0.84-5.699-2.22c-1.44-1.62-2.041-4.2-2.041-7.62V41.62h-4.499V37.6h4.499v-5.34
				L310.225,30.641z"/>
		</g>
		<g>
			<path d="M360.575,24.042v35.098c0,2.58,0.06,5.52,0.239,7.5h-4.739l-0.24-5.04h-0.12c-1.619,3.24-5.1,5.7-9.84,5.7
				c-7.02,0-12.479-5.939-12.479-14.76c-0.061-9.719,6-15.6,13.02-15.6c4.5,0,7.499,2.101,8.76,4.381h0.119V24.042H360.575z
				 M355.295,49.421c0-0.721-0.06-1.561-0.24-2.28c-0.779-3.3-3.659-6.06-7.619-6.06c-5.46,0-8.699,4.799-8.699,11.159
				c0,5.94,2.939,10.8,8.579,10.8c3.54,0,6.78-2.4,7.739-6.359c0.181-0.66,0.24-1.381,0.24-2.221V49.421z"/>
			<path d="M372.456,32.68c-1.92,0-3.181-1.5-3.181-3.239c0-1.86,1.32-3.3,3.301-3.3c1.92,0,3.24,1.439,3.24,3.3
				c0,1.739-1.261,3.239-3.301,3.239H372.456z M369.935,66.639V37.6h5.28v29.039H369.935z"/>
			<path d="M384.576,46.661c0-3.42-0.061-6.36-0.24-9.061h4.62l0.239,5.7h0.181c1.319-3.899,4.56-6.36,8.1-6.36
				c0.54,0,0.96,0.061,1.44,0.121v4.979c-0.541-0.06-1.08-0.119-1.801-0.119c-3.72,0-6.359,2.82-7.079,6.72
				c-0.12,0.78-0.181,1.62-0.181,2.46v15.539h-5.279V46.661z"/>
			<path d="M407.195,53.08c0.119,7.08,4.619,10.02,9.899,10.02c3.78,0,6.12-0.659,8.04-1.5l0.959,3.78
				c-1.859,0.84-5.1,1.859-9.719,1.859c-8.88,0-14.279-5.939-14.279-14.639c0-8.76,5.219-15.66,13.68-15.66
				c9.478,0,11.939,8.34,11.939,13.68c0,1.08-0.061,1.86-0.181,2.46H407.195z M422.614,49.299c0.06-3.359-1.38-8.579-7.259-8.579
				c-5.4,0-7.68,4.92-8.101,8.579H422.614z"/>
			<path d="M455.555,65.559c-1.381,0.66-4.44,1.68-8.34,1.68c-8.76,0-14.46-5.939-14.46-14.818c0-8.941,6.12-15.481,15.6-15.481
				c3.12,0,5.88,0.78,7.319,1.561l-1.199,4.02c-1.26-0.66-3.24-1.38-6.12-1.38c-6.659,0-10.26,4.979-10.26,10.979
				c0,6.72,4.319,10.859,10.079,10.859c3,0,4.98-0.72,6.48-1.38L455.555,65.559z"/>
			<path d="M469.474,30.641V37.6h7.559v4.02h-7.559v15.6c0,3.6,1.019,5.641,3.959,5.641c1.439,0,2.28-0.121,3.06-0.36l0.239,4.019
				c-1.02,0.36-2.64,0.72-4.68,0.72c-2.46,0-4.439-0.84-5.7-2.22c-1.439-1.62-2.039-4.2-2.039-7.62V41.62h-4.5V37.6h4.5v-5.34
				L469.474,30.641z"/>
			<path d="M495.033,67.299c-7.799,0-13.919-5.76-13.919-14.939c0-9.72,6.42-15.42,14.399-15.42c8.34,0,13.98,6.061,13.98,14.88
				c0,10.8-7.5,15.479-14.399,15.479H495.033z M495.273,63.339c5.04,0,8.82-4.739,8.82-11.34c0-4.919-2.46-11.099-8.7-11.099
				c-6.18,0-8.88,5.76-8.88,11.279c0,6.359,3.601,11.159,8.7,11.159H495.273z"/>
			<path d="M516.754,46.661c0-3.42-0.06-6.36-0.24-9.061h4.62l0.24,5.7h0.18c1.32-3.899,4.56-6.36,8.1-6.36
				c0.54,0,0.96,0.061,1.44,0.121v4.979c-0.54-0.06-1.08-0.119-1.801-0.119c-3.72,0-6.359,2.82-7.079,6.72
				c-0.12,0.78-0.181,1.62-0.181,2.46v15.539h-5.279V46.661z"/>
		</g>
	</g>
</g>
</svg>
